<svg preserveAspectRatio="none" overflow="visible" style="display: block;" width="16" height="16" viewBox="0 0 16 16" fill="none" xmlns="http://www.w3.org/2000/svg">
<g id="&#230;&#144;&#156;&#231;&#180;&#160;">
<g id="Vector">
<path d="M10.7533 10.7533C10.9485 10.558 11.265 10.558 11.4603 10.7533L14.3535 13.6465C14.5488 13.8417 14.5488 14.1583 14.3535 14.3535C14.1583 14.5488 13.8417 14.5488 13.6465 14.3535L10.7533 11.4603C10.558 11.265 10.558 10.9485 10.7533 10.7533Z" fill="#6D758F"/>
<path d="M12.1667 7.33333C12.1667 4.66396 10.0027 2.5 7.33333 2.5C4.66396 2.5 2.5 4.66396 2.5 7.33333C2.5 10.0027 4.66396 12.1667 7.33333 12.1667C10.0027 12.1667 12.1667 10.0027 12.1667 7.33333ZM13.1667 7.33333C13.1667 10.555 10.555 13.1667 7.33333 13.1667C4.11167 13.1667 1.5 10.555 1.5 7.33333C1.5 4.11167 4.11167 1.5 7.33333 1.5C10.555 1.5 13.1667 4.11167 13.1667 7.33333Z" fill="#6D758F"/>
</g>
</g>
</svg>
