<svg preserveAspectRatio="none" overflow="visible" style="display: block;" width="24" height="24" viewBox="0 0 24 24" fill="none" xmlns="http://www.w3.org/2000/svg">
<g id="menu_icon ">
<path id="Vector" fill-rule="evenodd" clip-rule="evenodd" d="M4.80039 18C3.47491 18 2.40039 16.9255 2.40039 15.6V5.4C2.40039 4.07452 3.47491 3 4.80039 3H19.2004C20.5259 3 21.6004 4.07452 21.6004 5.4V15.6C21.6004 16.9255 20.5259 18 19.2004 18H12.6004V19.5H18.0004V21H6.00039V19.5H11.4004V18H4.80039ZM4.80039 16.5C4.20039 16.5 3.90039 16.2 3.90039 15.6L3.90039 5.4C3.90039 4.8 4.20039 4.5 4.80039 4.5L19.2004 4.5C19.8004 4.5 20.1004 4.8 20.1004 5.4V15.6C20.1004 16.2 19.8004 16.5 19.2004 16.5H4.80039ZM14.4004 7.2H7.20039V8.7H14.4004V7.2ZM10.8004 10.8H7.20039V12.3H10.8004V10.8Z" fill="#1D2129"/>
</g>
</svg>
