<svg preserveAspectRatio="none" overflow="visible" style="display: block;" width="16" height="16" viewBox="0 0 16 16" fill="none" xmlns="http://www.w3.org/2000/svg">
<g id="icon-glob" clip-path="url(#clip0_0_27)">
<path id="Vector" d="M7.99967 14.6668C11.6815 14.6668 14.6663 11.682 14.6663 8.00016C14.6663 4.31826 11.6815 1.3335 7.99967 1.3335C4.31777 1.3335 1.33301 4.31826 1.33301 8.00016C1.33301 11.682 4.31777 14.6668 7.99967 14.6668Z" stroke="#6D758F" stroke-linecap="round" stroke-linejoin="round"/>
<path id="Vector_2" d="M1.66699 8.3335L5.33366 9.66683L4.66699 12.0002L5.33366 14.0002" stroke="#6D758F" stroke-linecap="round" stroke-linejoin="round"/>
<path id="Vector_3" d="M11.333 13.6668L10.9997 12.0002L9.33301 11.3335V9.00016L11.333 8.3335L14.333 8.66683" stroke="#6D758F" stroke-linecap="round" stroke-linejoin="round"/>
<path id="Vector_4" d="M12.6667 3.66667L12.3333 4.66667L10 5V7L11.6667 6.33333H13L14.3333 7" stroke="#6D758F" stroke-linecap="round" stroke-linejoin="round"/>
<path id="Vector_5" d="M1.66699 7L3.33366 5.66667L5.00033 5.33333L6.33366 3.33333L5.66699 2" stroke="#6D758F" stroke-linecap="round" stroke-linejoin="round"/>
</g>
<defs>
<clipPath id="clip0_0_27">
<rect width="16" height="16" fill="white"/>
</clipPath>
</defs>
</svg>
